HIERARCHY
ROOT mixamorig:Hips
{
	OFFSET -0.000008 104.274872 1.554316
	CHANNELS 6 Xposition Yposition Zposition Xrotation Yrotation Zrotation
	JOINT mixamorig:Spine
	{
		OFFSET -0.000005 10.181595 0.131519
		CHANNELS 6 Xposition Yposition Zposition Xrotation Yrotation Zrotation
		JOINT mixamorig:Spine1
		{
			OFFSET -0.000000 9.893959 -1.470707
			CHANNELS 6 Xposition Yposition Zposition Xrotation Yrotation Zrotation
			JOINT mixamorig:Spine2
			{
				OFFSET -0.000000 9.220757 -1.370641
				CHANNELS 6 Xposition Yposition Zposition Xrotation Yrotation Zrotation
				JOINT mixamorig:Neck
				{
					OFFSET 0.000001 16.740417 -2.049036
					CHANNELS 6 Xposition Yposition Zposition Xrotation Yrotation Zrotation
					JOINT mixamorig:Head
					{
						OFFSET 0.000000 9.617874 1.685006
						CHANNELS 6 Xposition Yposition Zposition Xrotation Yrotation Zrotation
						JOINT mixamorig:HeadTop_End
						{
							OFFSET 0.000002 22.037354 7.501101
							CHANNELS 6 Xposition Yposition Zposition Xrotation Yrotation Zrotation
							End Site
							{
								OFFSET 0.000168 2310.654297 -282.823242
							}
						}
					}
				}
				JOINT mixamorig:RightShoulder
				{
					OFFSET -4.569970 11.014908 -2.160885
					CHANNELS 6 Xposition Yposition Zposition Xrotation Yrotation Zrotation
					JOINT mixamorig:RightArm
					{
						OFFSET -10.592851 -0.524811 -2.232101
						CHANNELS 6 Xposition Yposition Zposition Xrotation Yrotation Zrotation
						JOINT mixamorig:RightForeArm
						{
							OFFSET -27.841511 0.000031 -0.000004
							CHANNELS 6 Xposition Yposition Zposition Xrotation Yrotation Zrotation
							JOINT mixamorig:RightHand
							{
								OFFSET -28.328831 -0.000015 0.000015
								CHANNELS 6 Xposition Yposition Zposition Xrotation Yrotation Zrotation
								JOINT mixamorig:RightHandThumb1
								{
									OFFSET -2.464806 -1.573990 2.681852
									CHANNELS 6 Xposition Yposition Zposition Xrotation Yrotation Zrotation
									JOINT mixamorig:RightHandThumb2
									{
										OFFSET -3.215179 -1.872803 1.924282
										CHANNELS 6 Xposition Yposition Zposition Xrotation Yrotation Zrotation
										JOINT mixamorig:RightHandThumb3
										{
											OFFSET -2.654831 -1.527969 1.512609
											CHANNELS 6 Xposition Yposition Zposition Xrotation Yrotation Zrotation
											JOINT mixamorig:RightHandThumb4
											{
												OFFSET -2.018814 -1.152008 1.108052
												CHANNELS 6 Xposition Yposition Zposition Xrotation Yrotation Zrotation
												End Site
												{
													OFFSET -188.809540 -114.533607 132.431396
												}
											}
										}
									}
								}
								JOINT mixamorig:RightHandIndex1
								{
									OFFSET -9.108284 -0.517868 2.259835
									CHANNELS 6 Xposition Yposition Zposition Xrotation Yrotation Zrotation
									JOINT mixamorig:RightHandIndex2
									{
										OFFSET -3.699989 0.000000 0.001215
										CHANNELS 6 Xposition Yposition Zposition Xrotation Yrotation Zrotation
										JOINT mixamorig:RightHandIndex3
										{
											OFFSET -2.850006 0.000031 -0.000522
											CHANNELS 6 Xposition Yposition Zposition Xrotation Yrotation Zrotation
											JOINT mixamorig:RightHandIndex4
											{
												OFFSET -2.772186 -0.000015 -0.000020
												CHANNELS 6 Xposition Yposition Zposition Xrotation Yrotation Zrotation
												End Site
												{
													OFFSET -277.218445 0.000000 -0.050231
												}
											}
										}
									}
								}
								JOINT mixamorig:RightHandMiddle1
								{
									OFFSET -9.532516 -0.000031 -0.000023
									CHANNELS 6 Xposition Yposition Zposition Xrotation Yrotation Zrotation
									JOINT mixamorig:RightHandMiddle2
									{
										OFFSET -3.700005 -0.000015 0.003713
										CHANNELS 6 Xposition Yposition Zposition Xrotation Yrotation Zrotation
										JOINT mixamorig:RightHandMiddle3
										{
											OFFSET -2.949974 0.000015 -0.002054
											CHANNELS 6 Xposition Yposition Zposition Xrotation Yrotation Zrotation
											JOINT mixamorig:RightHandMiddle4
											{
												OFFSET -2.946640 0.000000 -0.000156
												CHANNELS 6 Xposition Yposition Zposition Xrotation Yrotation Zrotation
												End Site
												{
													OFFSET -294.664337 0.000000 -0.113670
												}
											}
										}
									}
								}
								JOINT mixamorig:RightHandRing1
								{
									OFFSET -9.103600 -0.043076 -1.865134
									CHANNELS 6 Xposition Yposition Zposition Xrotation Yrotation Zrotation
									JOINT mixamorig:RightHandRing2
									{
										OFFSET -3.379288 0.000000 -0.001055
										CHANNELS 6 Xposition Yposition Zposition Xrotation Yrotation Zrotation
										JOINT mixamorig:RightHandRing3
										{
											OFFSET -2.889687 -0.000015 0.000379
											CHANNELS 6 Xposition Yposition Zposition Xrotation Yrotation Zrotation
											JOINT mixamorig:RightHandRing4
											{
												OFFSET -2.638809 -0.000015 0.000941
												CHANNELS 6 Xposition Yposition Zposition Xrotation Yrotation Zrotation
												End Site
												{
													OFFSET -263.880371 0.000000 0.516020
												}
											}
										}
									}
								}
								JOINT mixamorig:RightHandPinky1
								{
									OFFSET -8.076683 -0.486710 -3.806280
									CHANNELS 6 Xposition Yposition Zposition Xrotation Yrotation Zrotation
									JOINT mixamorig:RightHandPinky2
									{
										OFFSET -3.600014 -0.000015 -0.003747
										CHANNELS 6 Xposition Yposition Zposition Xrotation Yrotation Zrotation
										JOINT mixamorig:RightHandPinky3
										{
											OFFSET -2.099983 0.000000 -0.005739
											CHANNELS 6 Xposition Yposition Zposition Xrotation Yrotation Zrotation
											JOINT mixamorig:RightHandPinky4
											{
												OFFSET -2.115768 -0.000031 -0.003680
												CHANNELS 6 Xposition Yposition Zposition Xrotation Yrotation Zrotation
												End Site
												{
													OFFSET -211.577087 0.000000 -0.350686
												}
											}
										}
									}
								}
							}
						}
					}
				}
				JOINT mixamorig:LeftShoulder
				{
					OFFSET 4.570447 11.014725 -2.160855
					CHANNELS 6 Xposition Yposition Zposition Xrotation Yrotation Zrotation
					JOINT mixamorig:LeftArm
					{
						OFFSET 10.592371 -0.524597 -2.232119
						CHANNELS 6 Xposition Yposition Zposition Xrotation Yrotation Zrotation
						JOINT mixamorig:LeftForeArm
						{
							OFFSET 27.841532 -0.000031 0.000026
							CHANNELS 6 Xposition Yposition Zposition Xrotation Yrotation Zrotation
							JOINT mixamorig:LeftHand
							{
								OFFSET 28.328846 -0.000061 0.000022
								CHANNELS 6 Xposition Yposition Zposition Xrotation Yrotation Zrotation
								JOINT mixamorig:LeftHandThumb1
								{
									OFFSET 2.466141 -1.576172 2.681732
									CHANNELS 6 Xposition Yposition Zposition Xrotation Yrotation Zrotation
									JOINT mixamorig:LeftHandThumb2
									{
										OFFSET 3.217812 -1.872070 1.916482
										CHANNELS 6 Xposition Yposition Zposition Xrotation Yrotation Zrotation
										JOINT mixamorig:LeftHandThumb3
										{
											OFFSET 2.656029 -1.528778 1.514513
											CHANNELS 6 Xposition Yposition Zposition Xrotation Yrotation Zrotation
											JOINT mixamorig:LeftHandThumb4
											{
												OFFSET 2.020889 -1.154053 1.115139
												CHANNELS 6 Xposition Yposition Zposition Xrotation Yrotation Zrotation
												End Site
												{
													OFFSET 190.885437 -115.081749 130.048782
												}
											}
										}
									}
								}
								JOINT mixamorig:LeftHandIndex1
								{
									OFFSET 9.109314 -0.518021 2.259871
									CHANNELS 6 Xposition Yposition Zposition Xrotation Yrotation Zrotation
									JOINT mixamorig:LeftHandIndex2
									{
										OFFSET 3.699989 0.000000 -0.000322
										CHANNELS 6 Xposition Yposition Zposition Xrotation Yrotation Zrotation
										JOINT mixamorig:LeftHandIndex3
										{
											OFFSET 2.850006 0.000000 0.000352
											CHANNELS 6 Xposition Yposition Zposition Xrotation Yrotation Zrotation
											JOINT mixamorig:LeftHandIndex4
											{
												OFFSET 2.774864 -0.000031 -0.000027
												CHANNELS 6 Xposition Yposition Zposition Xrotation Yrotation Zrotation
												End Site
												{
													OFFSET 277.486267 0.000000 -0.009857
												}
											}
										}
									}
								}
								JOINT mixamorig:LeftHandMiddle1
								{
									OFFSET 9.533394 0.000061 0.000044
									CHANNELS 6 Xposition Yposition Zposition Xrotation Yrotation Zrotation
									JOINT mixamorig:LeftHandMiddle2
									{
										OFFSET 3.699989 -0.000015 -0.000231
										CHANNELS 6 Xposition Yposition Zposition Xrotation Yrotation Zrotation
										JOINT mixamorig:LeftHandMiddle3
										{
											OFFSET 2.949997 -0.000015 -0.000059
											CHANNELS 6 Xposition Yposition Zposition Xrotation Yrotation Zrotation
											JOINT mixamorig:LeftHandMiddle4
											{
												OFFSET 2.952896 0.000031 0.000063
												CHANNELS 6 Xposition Yposition Zposition Xrotation Yrotation Zrotation
												End Site
												{
													OFFSET 295.289337 0.000000 0.022810
												}
											}
										}
									}
								}
								JOINT mixamorig:LeftHandRing1
								{
									OFFSET 9.104523 -0.042999 -1.865074
									CHANNELS 6 Xposition Yposition Zposition Xrotation Yrotation Zrotation
									JOINT mixamorig:LeftHandRing2
									{
										OFFSET 3.150009 -0.000031 0.000043
										CHANNELS 6 Xposition Yposition Zposition Xrotation Yrotation Zrotation
										JOINT mixamorig:LeftHandRing3
										{
											OFFSET 2.949982 -0.000015 0.000040
											CHANNELS 6 Xposition Yposition Zposition Xrotation Yrotation Zrotation
											JOINT mixamorig:LeftHandRing4
											{
												OFFSET 2.644348 0.000000 0.000057
												CHANNELS 6 Xposition Yposition Zposition Xrotation Yrotation Zrotation
												End Site
												{
													OFFSET 264.434631 0.000000 0.012105
												}
											}
										}
									}
								}
								JOINT mixamorig:LeftHandPinky1
								{
									OFFSET 8.077789 -0.486847 -3.806259
									CHANNELS 6 Xposition Yposition Zposition Xrotation Yrotation Zrotation
									JOINT mixamorig:LeftHandPinky2
									{
										OFFSET 3.599953 0.000031 0.014727
										CHANNELS 6 Xposition Yposition Zposition Xrotation Yrotation Zrotation
										JOINT mixamorig:LeftHandPinky3
										{
											OFFSET 2.100021 0.000015 0.007705
											CHANNELS 6 Xposition Yposition Zposition Xrotation Yrotation Zrotation
											JOINT mixamorig:LeftHandPinky4
											{
												OFFSET 2.125504 0.000031 0.007517
												CHANNELS 6 Xposition Yposition Zposition Xrotation Yrotation Zrotation
												End Site
												{
													OFFSET 212.550781 0.000000 0.625752
												}
											}
										}
									}
								}
							}
						}
					}
				}
			}
		}
	}
	JOINT mixamorig:RightUpLeg
	{
		OFFSET -8.207787 -6.751648 -1.599560
		CHANNELS 6 Xposition Yposition Zposition Xrotation Yrotation Zrotation
		JOINT mixamorig:RightLeg
		{
			OFFSET -0.000002 -44.370117 0.345942
			CHANNELS 6 Xposition Yposition Zposition Xrotation Yrotation Zrotation
			JOINT mixamorig:RightFoot
			{
				OFFSET 0.000003 -44.423679 -3.043532
				CHANNELS 6 Xposition Yposition Zposition Xrotation Yrotation Zrotation
				JOINT mixamorig:RightToeBase
				{
					OFFSET -0.000002 -8.728671 10.710558
					CHANNELS 6 Xposition Yposition Zposition Xrotation Yrotation Zrotation
					JOINT mixamorig:RightToe_End
					{
						OFFSET -0.000001 -0.000679 9.278119
						CHANNELS 6 Xposition Yposition Zposition Xrotation Yrotation Zrotation
						End Site
						{
							OFFSET 0.000000 -0.067690 927.812134
						}
					}
				}
			}
		}
	}
	JOINT mixamorig:LeftUpLeg
	{
		OFFSET 8.207793 -6.751686 -1.599556
		CHANNELS 6 Xposition Yposition Zposition Xrotation Yrotation Zrotation
		JOINT mixamorig:LeftLeg
		{
			OFFSET -0.000004 -44.370014 0.346954
			CHANNELS 6 Xposition Yposition Zposition Xrotation Yrotation Zrotation
			JOINT mixamorig:LeftFoot
			{
				OFFSET -0.000001 -44.423672 -3.044401
				CHANNELS 6 Xposition Yposition Zposition Xrotation Yrotation Zrotation
				JOINT mixamorig:LeftToeBase
				{
					OFFSET -0.000002 -8.728669 10.710558
					CHANNELS 6 Xposition Yposition Zposition Xrotation Yrotation Zrotation
					JOINT mixamorig:LeftToe_End
					{
						OFFSET -0.000003 -0.000679 9.278133
						CHANNELS 6 Xposition Yposition Zposition Xrotation Yrotation Zrotation
						End Site
						{
							OFFSET 0.000000 -0.068021 927.813477
						}
					}
				}
			}
		}
	}
}
MOTION
Frames: 3
Frame Time: 0.033333
0.000006 104.270477 1.554256 0.000010 0.000003 -0.000113 -0.000005 10.181587 0.131522 0.000001 -0.000003 0.000084 -0.000000 9.893967 -1.470711 0.000001 0.000000 -0.000000 -0.000000 9.220802 -1.370642 0.000000 -0.000000 -0.000000 0.000001 16.740433 -2.049030 0.000000 -0.000000 -0.000000 0.000000 9.617859 1.685014 0.000000 0.000000 0.000000 0.000002 22.037384 7.501101 0.000000 -0.000000 0.000000 -4.569968 11.014880 -2.160881 0.000008 0.000001 -0.000038 -10.592873 -0.524765 -2.231910 76.370210 29.140220 -23.107604 -27.841511 0.000013 0.000554 -47.197864 107.865790 61.912045 -28.328819 0.000022 0.000033 -0.000321 -0.000044 0.000006 -2.464428 -1.573942 2.682377 -28.546706 -149.654526 27.309834 -3.215265 -1.872574 1.924668 154.501188 32.589394 9.942881 -2.654947 -1.527874 1.513075 143.396844 27.471219 -39.640673 -2.018819 -1.152000 1.108071 -0.000001 -0.000001 0.000002 -9.108394 -0.517573 2.260167 109.466827 17.406793 -24.495232 -3.700063 0.000310 0.001537 104.100860 13.716457 -17.504248 -2.850089 0.000372 -0.000208 104.883135 9.630981 -12.503390 -2.772185 0.000000 -0.000019 0.000001 0.000002 -0.000001 -9.532590 0.000254 0.000319 109.379496 16.635308 -23.525603 -3.700079 0.000327 0.004043 108.599899 12.266810 -16.878625 -2.950055 0.000341 -0.001748 110.256281 9.696166 -13.868742 -2.946634 -0.000014 -0.000158 0.000001 -0.000002 0.000001 -9.103687 -0.042773 -1.864778 109.583767 16.912778 -23.733027 -3.379354 0.000292 -0.000718 111.525146 11.609131 -17.017425 -2.889771 0.000333 0.000727 115.844653 7.849422 -12.567783 -2.638824 -0.000013 0.000942 -0.000003 -0.000001 0.000000 -8.076772 -0.486411 -3.805991 96.322873 20.445779 -22.605138 -3.600062 0.000267 -0.003444 104.269224 12.077638 -15.020226 -2.100011 0.000309 -0.005387 108.917263 6.380662 -8.611949 -2.115772 -0.000040 -0.003679 0.000000 -0.000002 -0.000004 4.570446 11.014691 -2.160851 -0.000018 0.000010 -0.000021 10.592409 -0.524472 -2.232383 71.819152 -16.855462 12.247665 27.841839 0.000058 -0.000197 103.228542 -71.351332 84.369966 28.328840 -0.000013 0.000021 0.000025 -0.000088 -0.000000 2.466013 -1.576181 2.681894 -34.042438 147.048249 -15.368358 3.217775 -1.871720 1.916373 158.152894 -32.285375 -5.010181 2.656102 -1.528642 1.514464 140.122943 -27.706705 47.773270 2.020895 -1.154087 1.115150 0.000001 0.000007 0.000004 9.109382 -0.517827 2.259726 94.726787 -14.005342 15.184497 3.700052 0.000192 -0.000450 96.204410 -15.160445 16.893356 2.850058 0.000218 0.000225 95.760072 -13.976982 15.439322 2.774886 -0.000031 -0.000028 -0.000003 0.000000 0.000000 9.533456 0.000266 -0.000099 98.740753 -11.375399 13.232675 3.700054 0.000215 -0.000355 100.447535 -12.624622 15.135069 2.950091 0.000182 -0.000181 99.437917 -18.256256 21.474415 2.952848 -0.000015 0.000060 -0.000003 0.000000 0.000001 9.104594 -0.042788 -1.865227 99.209632 -9.573654 11.243113 3.150054 0.000246 -0.000090 102.636160 -11.827495 14.745719 2.950053 0.000196 -0.000039 106.048686 -16.122009 21.309408 2.644313 0.000031 0.000057 0.000000 -0.000000 -0.000001 8.077838 -0.486690 -3.806431 83.015622 -12.010952 11.134511 3.600008 0.000214 0.014550 86.762875 -8.838727 8.811700 2.100054 0.000204 0.007553 92.631968 -11.571632 12.613483 2.125504 0.000000 0.007512 0.000001 -0.000001 0.000000 -8.207786 -6.751667 -1.599560 -0.077001 -0.000003 0.000080 -0.000002 -44.370110 0.345938 0.153719 -0.000000 -0.000000 0.000000 -44.423679 -3.043532 -0.076700 0.000000 -0.000002 -0.000006 -8.728667 10.710559 -0.000009 -0.000000 -0.000000 -0.000001 -0.000679 9.278123 0.000000 -0.000000 -0.000000 8.207792 -6.751710 -1.599556 -0.074518 -0.000003 0.000081 -0.000002 -44.370014 0.346960 0.148822 0.000002 0.000000 -0.000001 -44.423664 -3.044403 -0.074314 0.000000 -0.000002 -0.000004 -8.728671 10.710558 0.000007 -0.000000 -0.000000 0.000000 -0.000680 9.278137 -0.000000 0.000000 -0.000001 
0.000006 104.270477 1.554256 0.000010 0.000003 -0.000113 -0.000005 10.181587 0.131522 0.000001 -0.000003 0.000084 -0.000000 9.893967 -1.470711 0.000001 0.000000 -0.000000 -0.000000 9.220802 -1.370642 0.000000 -0.000000 -0.000000 0.000001 16.740433 -2.049030 0.000000 -0.000000 -0.000000 0.000000 9.617859 1.685014 0.000000 0.000000 0.000000 0.000002 22.037384 7.501101 0.000000 -0.000000 0.000000 -4.569968 11.014880 -2.160881 0.000008 0.000001 -0.000038 -10.592871 -0.524773 -2.231899 76.126659 31.496430 -24.904632 -27.841511 0.000012 0.000550 -45.780169 106.669871 59.120560 -28.328800 0.000021 0.000029 -0.000324 -0.000044 0.000005 -2.464399 -1.573965 2.682351 -25.915759 -145.247565 29.463046 -3.215258 -1.872523 1.924625 151.520247 33.961651 23.152238 -2.654950 -1.527878 1.513078 146.465224 26.990618 -37.561789 -2.018834 -1.151996 1.108073 -0.000003 -0.000001 0.000002 -9.108374 -0.517562 2.260151 107.720348 14.967827 -20.458153 -3.700053 0.000315 0.001539 107.220514 10.970668 -14.816787 -2.850080 0.000380 -0.000202 106.468873 8.388761 -11.210543 -2.772155 -0.000016 -0.000020 -0.000000 -0.000002 -0.000000 -9.532577 0.000258 0.000318 109.388082 15.397710 -21.812831 -3.700048 0.000329 0.004042 110.520158 9.704842 -13.825875 -2.950035 0.000342 -0.001732 110.286744 8.801617 -12.601072 -2.946630 -0.000002 -0.000152 0.000002 0.000002 -0.000001 -9.103708 -0.042789 -1.864787 110.176586 17.292840 -24.519971 -3.379339 0.000316 -0.000733 113.168530 8.382521 -12.701903 -2.889758 0.000334 0.000720 116.798707 6.319162 -10.328261 -2.638813 -0.000017 0.000939 -0.000000 0.000002 -0.000002 -8.076778 -0.486423 -3.805954 99.730789 23.309030 -27.308800 -3.600052 0.000275 -0.003441 103.119293 11.544880 -14.052520 -2.100019 0.000316 -0.005407 107.023047 6.335883 -8.258928 -2.115782 -0.000055 -0.003675 -0.000000 -0.000001 -0.000001 4.570446 11.014691 -2.160851 -0.000018 0.000010 -0.000021 10.592402 -0.524479 -2.232347 71.411643 -13.748024 9.904122 27.841816 0.000068 -0.000191 104.629107 -73.323488 87.874236 28.328817 -0.000029 0.000020 0.000021 -0.000087 -0.000000 2.466175 -1.576137 2.681883 -9.801642 155.194001 -63.378234 3.217853 -1.871756 1.916385 168.151498 -27.193220 18.886419 2.656099 -1.528668 1.514484 138.777273 -27.778772 57.237122 2.020895 -1.154083 1.115147 0.000006 0.000002 0.000001 9.109402 -0.517825 2.259736 98.735323 -17.465499 20.283640 3.700014 0.000220 -0.000450 97.149940 -9.389750 10.652796 2.850032 0.000250 0.000196 97.609537 -6.260224 7.148644 2.774876 -0.000046 -0.000025 0.000003 0.000000 0.000001 9.533487 0.000258 -0.000092 100.906906 -16.559179 19.979441 3.700033 0.000219 -0.000375 99.895376 -7.869260 9.351738 2.950058 0.000214 -0.000195 101.682044 -9.554614 11.721976 2.952878 -0.000017 0.000058 -0.000002 -0.000001 0.000001 9.104597 -0.042789 -1.865212 99.729443 -15.206352 17.995127 3.150047 0.000251 -0.000099 103.337709 -10.472505 13.225919 2.950049 0.000210 -0.000061 106.410126 -11.285071 15.052014 2.644295 0.000031 0.000061 0.000003 0.000000 -0.000000 8.077864 -0.486705 -3.806395 84.064534 -19.710229 18.346756 3.600020 0.000188 0.014582 88.101408 -17.945064 17.885028 2.100059 0.000203 0.007567 92.360345 -15.679087 16.851060 2.125511 0.000002 0.007517 0.000003 0.000001 0.000000 -8.207786 -6.751667 -1.599560 -0.077001 -0.000003 0.000080 -0.000002 -44.370110 0.345938 0.153719 -0.000000 -0.000000 0.000000 -44.423679 -3.043532 -0.076700 0.000000 -0.000002 -0.000006 -8.728667 10.710559 -0.000009 -0.000000 -0.000000 -0.000001 -0.000679 9.278123 0.000000 -0.000000 -0.000000 8.207792 -6.751710 -1.599556 -0.074518 -0.000003 0.000081 -0.000002 -44.370014 0.346960 0.148822 0.000002 0.000000 -0.000001 -44.423664 -3.044403 -0.074314 0.000000 -0.000002 -0.000004 -8.728671 10.710558 0.000007 -0.000000 -0.000000 0.000000 -0.000680 9.278137 -0.000000 0.000000 -0.000001 
0.000006 104.270477 1.554256 0.000010 0.000003 -0.000113 -0.000005 10.181587 0.131522 0.000001 -0.000003 0.000084 -0.000000 9.893967 -1.470711 0.000001 0.000000 -0.000000 -0.000000 9.220802 -1.370642 0.000000 -0.000000 -0.000000 0.000001 16.740433 -2.049030 0.000000 -0.000000 -0.000000 0.000000 9.617859 1.685014 0.000000 0.000000 0.000000 0.000002 22.037384 7.501101 0.000000 -0.000000 0.000000 -4.569968 11.014880 -2.160881 0.000008 0.000001 -0.000038 -10.592860 -0.524791 -2.231848 76.205151 39.562935 -31.500433 -27.841520 0.000010 0.000575 -45.256932 103.968511 56.135914 -28.328827 0.000022 0.000024 -0.000321 -0.000043 0.000009 -2.464407 -1.573954 2.682352 -28.346871 -146.275468 25.786790 -3.215278 -1.872515 1.924630 153.231537 33.744936 18.807831 -2.654947 -1.527892 1.513079 147.334379 26.755941 -38.154441 -2.018827 -1.152022 1.108054 -0.000002 -0.000006 0.000002 -9.108375 -0.517552 2.260164 108.298674 15.185355 -20.968291 -3.700059 0.000308 0.001554 107.326130 10.677407 -14.449503 -2.850074 0.000388 -0.000213 105.827108 8.035841 -10.616301 -2.772178 -0.000016 -0.000024 -0.000001 -0.000005 -0.000000 -9.532586 0.000269 0.000312 109.045445 15.205657 -21.413051 -3.700049 0.000340 0.004033 109.760607 9.179856 -12.893457 -2.950064 0.000334 -0.001734 109.587667 8.584236 -12.133588 -2.946599 0.000013 -0.000159 -0.000001 0.000003 -0.000001 -9.103706 -0.042757 -1.864779 109.556385 16.851405 -23.636271 -3.379325 0.000307 -0.000710 112.975844 7.773714 -11.742153 -2.889747 0.000344 0.000731 116.974311 6.139505 -10.071847 -2.638819 -0.000003 0.000945 -0.000001 0.000002 0.000001 -8.076770 -0.486410 -3.805944 98.909670 21.685470 -25.059604 -3.600059 0.000273 -0.003449 103.044482 10.182181 -12.335373 -2.100003 0.000320 -0.005408 107.400319 5.843646 -7.649357 -2.115762 -0.000051 -0.003677 -0.000001 0.000001 -0.000002 4.570446 11.014691 -2.160851 -0.000018 0.000010 -0.000021 10.592429 -0.524479 -2.232378 70.905164 -24.121595 17.301368 27.841835 0.000033 -0.000166 106.608693 -75.200902 91.879657 28.328836 -0.000029 0.000022 0.000021 -0.000089 0.000001 2.466186 -1.576115 2.681872 -4.623869 157.588460 -73.438494 3.217856 -1.871801 1.916401 168.834094 -25.020894 26.258833 2.656101 -1.528699 1.514485 136.841706 -28.460635 58.775226 2.020899 -1.154075 1.115148 0.000002 -0.000001 0.000002 9.109388 -0.517807 2.259759 100.687404 -18.692426 22.444990 3.700060 0.000217 -0.000463 99.580736 -9.854821 11.665453 2.850020 0.000268 0.000204 99.405125 -6.438359 7.587999 2.774887 -0.000031 -0.000025 0.000001 0.000001 -0.000000 9.533483 0.000252 -0.000067 101.899654 -17.638224 21.643293 3.700039 0.000240 -0.000377 102.238131 -7.800395 9.662563 2.950059 0.000232 -0.000204 103.595918 -9.074279 11.519323 2.952894 -0.000014 0.000063 0.000002 0.000001 0.000001 9.104601 -0.042792 -1.865206 99.703126 -16.651275 19.686637 3.150062 0.000245 -0.000078 104.520718 -10.944866 14.114462 2.950035 0.000224 -0.000055 107.257794 -11.138439 15.086235 2.644318 0.000046 0.000056 -0.000000 0.000001 -0.000000 8.077862 -0.486701 -3.806393 83.623352 -21.128447 19.490886 3.600013 0.000200 0.014597 89.574318 -19.312438 19.707037 2.100075 0.000201 0.007570 94.629798 -16.183681 18.071029 2.125505 -0.000014 0.007514 0.000003 -0.000000 -0.000000 -8.207786 -6.751667 -1.599560 -0.077001 -0.000003 0.000080 -0.000002 -44.370110 0.345938 0.153719 -0.000000 -0.000000 0.000000 -44.423679 -3.043532 -0.076700 0.000000 -0.000002 -0.000006 -8.728667 10.710559 -0.000009 -0.000000 -0.000000 -0.000001 -0.000679 9.278123 0.000000 -0.000000 -0.000000 8.207792 -6.751710 -1.599556 -0.074518 -0.000003 0.000081 -0.000002 -44.370014 0.346960 0.148822 0.000002 0.000000 -0.000001 -44.423664 -3.044403 -0.074314 0.000000 -0.000002 -0.000004 -8.728671 10.710558 0.000007 -0.000000 -0.000000 0.000000 -0.000680 9.278137 -0.000000 0.000000 -0.000001 
